<?xml version="1.0" standalone="no"?><!DOCTYPE svg PUBLIC "-//W3C//DTD SVG 1.1//EN" "http://www.w3.org/Graphics/SVG/1.1/DTD/svg11.dtd"><svg width="100%" height="100%" viewBox="0 0 682 75" version="1.1" xmlns="http://www.w3.org/2000/svg" xmlns:xlink="http://www.w3.org/1999/xlink" xml:space="preserve" style="fill-rule:evenodd;clip-rule:evenodd;stroke-linejoin:round;stroke-miterlimit:1.41421;"><g><g><path d="M477.7,23.4c5.5,0 10.9,0 16.4,0c1.5,0 2.9,0.3 4.2,1c1.4,0.8 2.5,1.8 3.2,3.2c0.3,0.7 0.5,1.4 0.5,2.2c0,7.3 0,14.6 0,21.9c0,0.4 0,0.4 -0.3,0.4c-1.2,0 -2.4,0 -3.6,0c-0.4,0 -0.4,0 -0.4,-0.4l0,-16.9c0,-1.7 -0.3,-3.3 -0.9,-4.9c-0.9,-2 -2.4,-3.4 -4.5,-4.2c-1.4,-0.5 -2.9,-0.7 -4.4,-0.7c-6.4,0 -12.7,0 -19.1,0c-0.5,0 -1,0 -1.5,0.2c-1.5,0.4 -2.2,1.5 -2.4,2.9c-0.1,0.5 -0.1,0.9 -0.1,1.4c0,7.4 0,14.7 0,22.1c0,0.5 0,0.5 -0.5,0.5c-1.2,0 -2.4,0 -3.6,0c-0.4,0 -0.4,0 -0.4,-0.4l0,-27.7c0,-0.6 -0.1,-0.5 0.5,-0.5c5.5,-0.2 11.2,-0.1 16.9,-0.1Z" style="fill:#fff;fill-rule:nonzero;"/><path d="M593.1,51.9c-0.1,0.1 -0.3,0 -0.4,0c-1.5,0 -3,0 -4.6,0c-0.3,0 -0.4,-0.1 -0.6,-0.3c-3.8,-6.5 -7.6,-13 -11.4,-19.5c-0.4,-0.7 -0.9,-1.4 -1.5,-1.9c-1.5,-1.2 -3.4,-1.1 -4.8,0.3c-0.5,0.5 -0.9,1 -1.2,1.6c-3.8,6.5 -7.6,13 -11.3,19.5c-0.2,0.3 -0.3,0.4 -0.7,0.4l-4.9,0c0,-0.2 0.1,-0.3 0.2,-0.4c5.5,-9.3 10.9,-18.6 16.4,-27.9c0.1,-0.3 0.3,-0.3 0.6,-0.3c2.3,0 4.5,0 6.8,0c0.3,0 0.4,0.1 0.6,0.3c5.5,9.3 11,18.6 16.5,27.9c0.2,0.1 0.2,0.2 0.3,0.3Z" style="fill:#fff;fill-rule:nonzero;"/><path d="M618.5,52c-5.6,0 -11.2,0 -16.8,0c-1.2,0 -2.3,-0.2 -3.4,-0.8c-1.7,-0.9 -2.9,-2.2 -3.6,-4.1c-0.2,-0.5 -0.2,-1 -0.2,-1.5c0,-5.5 0,-11 0,-16.4c0,-1.3 0.5,-2.4 1.5,-3.4c1.2,-1.2 2.6,-1.9 4.3,-2.2c0.8,-0.2 1.7,-0.3 2.5,-0.3c11,0 22.1,0 33.1,0c0.5,0 0.5,0 0.5,0.5c0,0.3 0,0.5 0,0.8c0,0.2 0,0.3 -0.2,0.2l-28.2,0c-1.1,0 -2.2,0.2 -3.2,0.6c-1.5,0.7 -2.8,1.7 -3.8,3c-1,1.4 -1.7,2.9 -1.9,4.6c-0.1,0.4 -0.1,0.9 -0.1,1.3c0,2.3 0,4.7 0,7c0,2 0.6,3.7 1.8,5.2c1.2,1.5 2.7,2.7 4.6,3.4c1,0.4 1.9,0.5 2.9,0.5l20.3,0c0.4,0 0.9,-0.1 1.3,-0.2c0.8,-0.3 1.4,-1 1.7,-1.8c0.2,-0.5 0.3,-1.1 0.3,-1.7c0,-0.9 0,-1.9 0,-2.8c0,-0.3 0,-0.3 0.3,-0.3c1.3,0 2.6,0 3.9,0c0.3,0 0.4,0 0.4,0.3l0,7.6c0,0.5 0,0.4 -0.4,0.4c-6,0.1 -11.8,0.1 -17.6,0.1Z" style="fill:#fff;fill-rule:nonzero;"/><path d="M530.2,52c-5.6,0 -11.2,0 -16.8,0c-1.2,0 -2.3,-0.2 -3.4,-0.8c-1.7,-0.9 -2.9,-2.2 -3.5,-4c-0.2,-0.5 -0.3,-1.1 -0.3,-1.6c0,-5.4 0,-10.8 0,-16.2c0,-1.4 0.5,-2.5 1.4,-3.5c1.2,-1.2 2.7,-1.9 4.3,-2.3c0.8,-0.2 1.7,-0.3 2.5,-0.3c11,0 22,0 33,0c0.5,0 0.5,0 0.5,0.5c0,0.3 0,0.5 0,0.8c0,0.2 -0.1,0.3 -0.3,0.2l-28.1,0c-3.1,0 -5.4,1.3 -7.2,3.7c-1,1.4 -1.6,2.9 -1.9,4.6c-0.1,0.4 -0.1,0.8 -0.1,1.2c0,2.3 0,4.7 0,7c0,2 0.6,3.7 1.8,5.2c1.2,1.5 2.7,2.7 4.6,3.4c0.9,0.3 1.8,0.5 2.8,0.5c6.8,0 13.6,0 20.3,0c1,0 1.9,-0.3 2.5,-1.1c0.5,-0.6 0.8,-1.4 0.8,-2.2c0.1,-1 0,-2 0,-3c0,-0.6 0,-0.6 0.6,-0.6c1.2,0 2.4,0 3.6,0c0.3,0 0.3,0 0.3,0.3c0,2.6 0,5.2 0,7.7c0,0.3 0,0.3 -0.3,0.3c-0.8,0 -1.6,0 -2.4,0c-4.6,0.2 -9.6,0.2 -14.7,0.2Z" style="fill:#fff;fill-rule:nonzero;"/><path d="M662.1,52l-20.6,0c-0.3,0 -0.3,0 -0.3,-0.3c0,-0.3 0,-0.6 0,-1c0,-0.2 0.1,-0.3 0.3,-0.2l40.9,0c0.5,0 0.5,0 0.5,0.5c0,0.3 0,0.5 0,0.8c0,0.2 -0.1,0.2 -0.2,0.2l-20.6,0Z" style="fill:#fff;fill-rule:nonzero;"/><path d="M433.9,52c-6.8,0 -13.6,0 -20.4,0c-0.5,0 -0.5,0.1 -0.5,-0.5c0,-0.3 0,-0.6 0,-0.8c0,-0.1 0,-0.2 0.2,-0.2l41,0c0.5,0 0.5,-0.1 0.5,0.5c0,0.3 0,0.5 0,0.8c0,0.2 0,0.3 -0.2,0.3c-0.1,0 -0.2,0 -0.3,0c-6.7,-0.1 -13.5,-0.1 -20.3,-0.1Z" style="fill:#fff;fill-rule:nonzero;"/><path d="M433.9,36.8c6.8,0 13.6,0 20.4,0c0.5,0 0.5,-0.1 0.5,0.5c0,0.3 0,0.5 0,0.8c0,0.2 0,0.3 -0.2,0.2l-41.1,0c-0.1,0 -0.1,0 -0.2,0c-0.2,0 -0.3,0 -0.3,-0.2c0,-0.3 0,-0.7 0,-1c0,-0.1 0,-0.2 0.2,-0.2c0.1,0 0.2,0 0.3,0c6.9,-0.1 13.7,-0.1 20.4,-0.1Z" style="fill:#fff;fill-rule:nonzero;"/><path d="M662.1,24.9c-6.8,0 -13.6,0 -20.4,0c-0.6,0 -0.5,0.1 -0.5,-0.5c0,-0.3 0,-0.5 0,-0.8c0,-0.3 0,-0.3 0.3,-0.3l40.9,0c0.5,0 0.5,0 0.5,0.5c0,0.3 0,0.6 0,0.8c0,0.1 -0.1,0.2 -0.2,0.2c-0.1,0 -0.2,0 -0.3,0c-6.8,0.1 -13.5,0.1 -20.3,0.1Z" style="fill:#fff;fill-rule:nonzero;"/><path d="M433.9,24.9c-6.8,0 -13.6,0 -20.4,0c-0.5,0 -0.5,0.1 -0.5,-0.5c0,-0.3 0,-0.6 0,-0.9c0,-0.1 0,-0.2 0.2,-0.2l41.1,0c0.5,0 0.5,0 0.5,0.4c0,0.3 0,0.6 0,0.9c0,0.1 0,0.2 -0.2,0.2c-0.1,0 -0.2,0 -0.3,0c-6.8,0.1 -13.6,0.1 -20.4,0.1Z" style="fill:#fff;fill-rule:nonzero;"/><path d="M662.1,38.3c-6.8,0 -13.6,0 -20.4,0c-0.5,0 -0.5,0.1 -0.5,-0.5c0,-0.2 0,-0.5 0,-0.7c0,-0.2 0,-0.3 0.3,-0.3l41.1,0c0.2,0 0.3,0 0.3,0.2c0,0.3 0,0.7 0,1c0,0.2 -0.1,0.2 -0.2,0.2c-0.1,0 -0.2,0 -0.3,0c-6.8,0.1 -13.5,0.1 -20.3,0.1Z" style="fill:#fff;fill-rule:nonzero;"/></g><g><path d="M345.4,0c0.3,0 0.4,0.2 0.6,0.3c9.9,5.7 19.7,11.4 29.6,17.1c0.4,0.2 0.5,0.4 0.5,0.9l0,15.1c0,0.4 0,0.4 -0.4,0.4c-2.7,0 -5.3,0 -8,0c-0.5,0 -0.5,0 -0.5,-0.5c0,-3.3 0,-6.5 0,-9.8c0,-0.5 -0.2,-0.7 -0.6,-0.9c-6.9,-4 -13.9,-8 -20.8,-12c-0.4,-0.2 -0.5,-0.4 -0.5,-0.8c0,-3.1 0,-6.2 0,-9.4c0.1,-0.2 0.1,-0.2 0.1,-0.4Z" style="fill:#fff;fill-rule:nonzero;"/><path d="M345.5,75.3c-0.1,-0.2 -0.1,-0.3 -0.1,-0.5c0,-3.1 0,-6.2 0,-9.2c0,-0.4 0.1,-0.6 0.4,-0.8c6.9,-4 13.9,-8 20.8,-12c0.4,-0.2 0.5,-0.4 0.5,-0.9l0,-9.9c0,-0.3 0.1,-0.4 0.4,-0.4c2.7,0 5.5,0 8.2,0c0.3,0 0.4,0.1 0.4,0.3l0,15.2c0,0.4 -0.1,0.6 -0.5,0.8c-8.3,4.8 -16.6,9.6 -24.9,14.4c-1.6,0.9 -3.2,1.8 -4.8,2.8c-0.1,0.1 -0.3,0.2 -0.4,0.2Z" style="fill:#fff;fill-rule:nonzero;"/><path d="M315.7,22.9c-0.2,0.2 -0.1,0.4 -0.1,0.6l0,9.8c0,0.2 -0.1,0.3 -0.3,0.3l-7.8,0c-0.1,0 -0.1,0 -0.2,0c-0.4,0 -0.4,0 -0.4,-0.4c0,-0.1 0,-0.1 0,-0.2c0,-4.9 0,-9.8 0,-14.7c0,-0.2 0,-0.5 0.1,-0.7c1.7,-1 3.3,-1.9 5,-2.9c8.3,-4.8 16.7,-9.6 25,-14.4c0.2,-0.1 0.3,-0.2 0.5,-0.3c0.1,0 0.2,0 0.2,0.1l0,9.6c0,0.4 -0.2,0.6 -0.5,0.8c-6.9,4 -13.9,8 -20.8,12c-0.4,0.1 -0.6,0.2 -0.7,0.4Z" style="fill:#fff;fill-rule:nonzero;"/><path d="M306.9,57.7c-0.1,-0.2 -0.1,-0.4 -0.1,-0.6c0,-5 0,-10 0,-14.9c0,-0.5 0,-0.5 0.5,-0.5c2.6,0 5.2,0 7.7,0c0.5,0 0.5,0 0.5,0.5c0,3.2 0,6.4 0,9.6c0,0.2 -0.1,0.4 0.1,0.6c0.6,0.4 1.3,0.8 2,1.2c6.4,3.7 12.9,7.4 19.3,11.2c0.4,0.2 0.5,0.5 0.5,0.9l0,9.6c-0.3,0 -0.4,-0.2 -0.6,-0.2c-8.7,-5 -17.4,-10 -26.1,-15.1c-1.2,-0.7 -2.5,-1.5 -3.8,-2.3Z" style="fill:#fff;fill-rule:nonzero;"/></g><g><path d="M7.9,23.4c3.6,0 6.3,0.7 8.1,2.2c1.8,1.5 2.7,3.6 2.7,6.3c0,1.3 -0.3,2.4 -0.8,3.5c-0.5,1 -1.2,2 -2.2,2.7c-0.9,0.8 -2.1,1.4 -3.4,1.8c-1.3,0.4 -2.8,0.6 -4.5,0.6l-5.6,0l0,11.5l-2.2,0l0,-28.6l7.9,0ZM7.9,38.8c1.3,0 2.5,-0.2 3.6,-0.5c1.1,-0.4 2,-0.8 2.7,-1.5c0.7,-0.6 1.3,-1.3 1.7,-2.2c0.4,-0.8 0.6,-1.8 0.6,-2.8c0,-2.2 -0.7,-3.9 -2.2,-5.1c-1.4,-1.2 -3.6,-1.8 -6.4,-1.8l-5.7,0l0,13.8l5.7,0l0,0.1Z" style="fill:#fff;fill-rule:nonzero;"/><path d="M51.9,37.7c0,2.2 -0.4,4.2 -1.1,6c-0.7,1.8 -1.7,3.3 -3,4.6c-1.3,1.3 -2.8,2.3 -4.6,2.9c-1.8,0.6 -3.8,1 -5.9,1c-2.2,0 -4.1,-0.3 -5.9,-1c-1.8,-0.7 -3.3,-1.7 -4.6,-2.9c-1.3,-1.3 -2.3,-2.8 -3,-4.6c-0.7,-1.8 -1.1,-3.8 -1.1,-6c0,-2.2 0.3,-4.2 1.1,-6c0.7,-1.8 1.7,-3.3 3,-4.6c1.3,-1.3 2.8,-2.3 4.6,-3c1.8,-0.7 3.7,-1.1 5.9,-1.1c2.2,0 4.1,0.3 5.9,1c1.8,0.7 3.3,1.7 4.6,3c1.3,1.3 2.3,2.8 3,4.6c0.7,1.9 1.1,3.9 1.1,6.1ZM49.6,37.7c0,-2 -0.3,-3.8 -0.9,-5.4c-0.6,-1.6 -1.4,-2.9 -2.5,-4c-1.1,-1.1 -2.4,-1.9 -3.9,-2.5c-1.5,-0.6 -3.2,-0.9 -5,-0.9c-1.8,0 -3.5,0.3 -5,0.9c-1.5,0.6 -2.8,1.4 -3.9,2.5c-1.1,1.1 -1.9,2.4 -2.5,4c-0.6,1.6 -0.9,3.4 -0.9,5.4c0,2 0.3,3.8 0.9,5.4c0.6,1.6 1.4,2.9 2.5,4c1.1,1.1 2.4,1.9 3.9,2.5c1.5,0.6 3.2,0.9 5,0.9c1.8,0 3.5,-0.3 5,-0.9c1.5,-0.6 2.8,-1.4 3.9,-2.5c1.1,-1.1 1.9,-2.4 2.5,-4c0.6,-1.6 0.9,-3.4 0.9,-5.4Z" style="fill:#fff;fill-rule:nonzero;"/><path d="M96.9,23.4l-9.6,28.6l-2,0l-9,-24.8c-0.1,-0.3 -0.2,-0.7 -0.3,-1c-0.1,0.4 -0.2,0.7 -0.3,1l-9,24.8l-2,0l-9.6,-28.6l1.9,0c0.4,0 0.7,0.2 0.8,0.5l7.7,23.5c0.2,0.5 0.3,1.1 0.4,1.8c0.1,-0.4 0.1,-0.7 0.2,-1c0.1,-0.3 0.2,-0.6 0.3,-0.9l8.6,-23.4c0.1,-0.1 0.2,-0.3 0.3,-0.4c0.1,-0.1 0.3,-0.2 0.5,-0.2l0.6,0c0.2,0 0.4,0.1 0.5,0.2c0.1,0.1 0.2,0.2 0.3,0.4l8.6,23.5c0.1,0.3 0.2,0.5 0.3,0.8c0.1,0.3 0.2,0.6 0.2,1c0.1,-0.3 0.1,-0.7 0.2,-1c0.1,-0.3 0.1,-0.6 0.2,-0.9l7.7,-23.5c0,-0.1 0.1,-0.3 0.3,-0.4c0.2,-0.1 0.3,-0.2 0.5,-0.2l1.7,0l0,0.2Z" style="fill:#fff;fill-rule:nonzero;"/><path d="M120.7,50.2l0,1.7l-18.2,0l0,-28.5l18.2,0l0,1.7l-16,0l0,11.5l13.3,0l0,1.7l-13.3,0l0,11.9l16,0Z" style="fill:#fff;fill-rule:nonzero;"/><path d="M148.3,52l-1.9,0c-0.2,0 -0.4,0 -0.6,-0.1c-0.2,-0.1 -0.3,-0.2 -0.5,-0.4l-9.8,-11.6c-0.1,-0.1 -0.2,-0.3 -0.4,-0.4c-0.1,-0.1 -0.3,-0.2 -0.4,-0.3c-0.2,-0.1 -0.3,-0.1 -0.5,-0.1c-0.2,0 -0.5,0 -0.8,0l-4,0l0,12.9l-2.2,0l0,-28.6l7.8,0c3.5,0 6.1,0.6 7.9,1.9c1.7,1.3 2.6,3.1 2.6,5.6c0,1.1 -0.2,2.1 -0.6,3c-0.4,0.9 -1,1.7 -1.7,2.4c-0.8,0.7 -1.7,1.2 -2.7,1.7c-1,0.5 -2.3,0.7 -3.6,0.9c0.3,0.2 0.7,0.5 0.9,0.8l10.5,12.3ZM134.8,37.5c1.3,0 2.6,-0.2 3.6,-0.5c1.1,-0.3 2,-0.7 2.7,-1.3c0.7,-0.6 1.3,-1.2 1.7,-2c0.4,-0.8 0.6,-1.7 0.6,-2.7c0,-2 -0.7,-3.5 -2.1,-4.5c-1.4,-1 -3.5,-1.5 -6.2,-1.5l-5.6,0l0,12.5l5.3,0Z" style="fill:#fff;fill-rule:nonzero;"/><path d="M171.7,50.2l0,1.7l-18.2,0l0,-28.5l18.2,0l0,1.7l-16,0l0,11.5l13.3,0l0,1.7l-13.3,0l0,11.9l16,0Z" style="fill:#fff;fill-rule:nonzero;"/><path d="M204,37.7c0,2.2 -0.3,4.2 -1.1,6c-0.7,1.8 -1.7,3.3 -3,4.5c-1.3,1.2 -2.8,2.2 -4.6,2.8c-1.8,0.7 -3.8,1 -5.9,1l-11.1,0l0,-28.6l11.1,0c2.1,0 4.1,0.3 5.9,1c1.8,0.7 3.3,1.6 4.6,2.8c1.3,1.2 2.3,2.7 3,4.5c0.8,1.8 1.1,3.8 1.1,6ZM201.8,37.7c0,-2 -0.3,-3.8 -0.9,-5.3c-0.6,-1.6 -1.4,-2.9 -2.5,-4c-1.1,-1.1 -2.4,-1.9 -3.9,-2.5c-1.5,-0.6 -3.2,-0.8 -5,-0.8l-8.9,0l0,25.2l8.9,0c1.8,0 3.5,-0.3 5,-0.8c1.5,-0.6 2.8,-1.4 3.9,-2.5c1.1,-1.1 1.9,-2.4 2.5,-4c0.6,-1.5 0.9,-3.3 0.9,-5.3Z" style="fill:#fff;fill-rule:nonzero;"/><path d="M231.5,23.4c1.7,0 3.2,0.2 4.5,0.5c1.3,0.3 2.3,0.8 3.2,1.4c0.8,0.6 1.4,1.4 1.9,2.3c0.4,0.9 0.6,1.9 0.6,3.1c0,0.8 -0.1,1.5 -0.4,2.2c-0.3,0.7 -0.7,1.3 -1.2,1.9c-0.5,0.6 -1.2,1.1 -1.9,1.5c-0.8,0.4 -1.6,0.8 -2.6,1c2.4,0.3 4.2,1.1 5.5,2.2c1.3,1.2 1.9,2.7 1.9,4.6c0,1.2 -0.2,2.3 -0.7,3.3c-0.5,1 -1.1,1.8 -2,2.5c-0.9,0.7 -1.9,1.2 -3.2,1.5c-1.3,0.4 -2.7,0.5 -4.3,0.5l-9.9,0l0,-28.5l8.6,0ZM225,25l0,11.7l6.6,0c1.4,0 2.6,-0.2 3.6,-0.5c1,-0.3 1.8,-0.8 2.5,-1.3c0.6,-0.6 1.1,-1.2 1.4,-1.9c0.3,-0.7 0.5,-1.4 0.5,-2.2c0,-1.9 -0.6,-3.4 -1.9,-4.4c-1.3,-1 -3.3,-1.5 -6,-1.5l-6.7,0l0,0.1ZM232.6,50.3c2.7,0 4.7,-0.5 6.1,-1.6c1.4,-1.1 2.1,-2.6 2.1,-4.6c0,-0.9 -0.2,-1.7 -0.5,-2.4c-0.4,-0.7 -0.9,-1.3 -1.6,-1.8c-0.7,-0.5 -1.5,-0.9 -2.5,-1.2c-1,-0.3 -2.1,-0.4 -3.4,-0.4l-7.8,0l0,12l7.6,0Z" style="fill:#fff;fill-rule:nonzero;"/><path d="M258.4,40.2l0,11.8l-2.2,0l0,-11.8l-11.2,-16.8l1.9,0c0.2,0 0.4,0 0.5,0.1c0.1,0.1 0.2,0.2 0.3,0.4l8.7,13.1c0.2,0.3 0.4,0.6 0.5,0.9c0.2,0.3 0.3,0.6 0.4,0.9c0.1,-0.3 0.2,-0.6 0.4,-0.9c0.1,-0.3 0.3,-0.6 0.5,-0.9l8.7,-13.1c0.1,-0.1 0.2,-0.3 0.3,-0.4c0.1,-0.1 0.3,-0.1 0.5,-0.1l1.9,0l-11.2,16.8Z" style="fill:#fff;fill-rule:nonzero;"/></g></g></svg>